# xmcd CD database file
#
# Track frame offsets:
#	150
#	10774
#	23036
#	32327
#	43373
#	53007
#	64391
#	76511
#	84882
#	94907
#	105742
#	115350
#	123804
#	135909
#	144700
#	154737
#	163763
#	172284
#	185902
#	197892
#	213289
#	228866
#	238402
#	248075
#	259104
#
# Disc length: 4049 seconds
#
# Revision: 0
# Processed by: cddbd v1.5.2PL0 Copyright (c) Steve Scherf et al.
# Submitted via: Feurio! 1.67 - http://www.feurio.com
#
DISCID=550fcf19
DTITLE=Weberhofer Blechstreich - Überlieferung
DYEAR=1900
DGENRE=
TTITLE0=Habt Acht!
TTITLE1=Holzhäusl Walzer
TTITLE2=Loisl-Polka
TTITLE3=Mooskirchner Hochzeitsmarsch
TTITLE4=Die alte Welt
TTITLE5=Grobbauern-Polka
TTITLE6=Alter Walzer
TTITLE7=Schoufbeerl-Polka
TTITLE8=Ebbo-Zwiefacher
TTITLE9=Stainzer Polka
TTITLE10=Blumenwalzer
TTITLE11=Wolfleiten-Polka
TTITLE12=Schneider-Boarischer
TTITLE13=Polka, zweite Stufe
TTITLE14=Wiesental-Marsch/Walzer
TTITLE15=Auf Bergeshöhen
TTITLE16=Gedankenfreund
TTITLE17=Herzbinkerl-Franzé
TTITLE18=Der Böhmische
TTITLE19=Japanaka
TTITLE20=Wohin-Franzé
TTITLE21=Teufelsteiner Polka
TTITLE22=Schottischer aus Aussee
TTITLE23=Steirer
TTITLE24=Der Weberhofer erzählt
EXTD=
EXTT0=
EXTT1=
EXTT2=
EXTT3=
EXTT4=
EXTT5=
EXTT6=
EXTT7=
EXTT8=
EXTT9=
EXTT10=
EXTT11=
EXTT12=
EXTT13=
EXTT14=
EXTT15=
EXTT16=
EXTT17=
EXTT18=
EXTT19=
EXTT20=
EXTT21=
EXTT22=
EXTT23=
EXTT24=
PLAYORDER=
